<svg id="visual" viewBox="0 0 900 600" width="900" height="600" xmlns="http://www.w3.org/2000/svg" xmlns:xlink="http://www.w3.org/1999/xlink" version="1.1"><rect x="0" y="0" width="900" height="600" fill="#FF0066"></rect><g transform="translate(484.2116246535376 313.17563050894825)"><path d="M127.3 -126.2C165.8 -119.3 198.6 -80.1 195.5 -42.6C192.4 -5.2 153.4 30.4 119.6 50.4C85.8 70.3 57.3 74.6 33.9 75.4C10.6 76.1 -7.5 73.3 -51.4 82.7C-95.3 92.2 -165 113.8 -210 93.4C-254.9 73 -275.2 10.4 -258.1 -38.4C-241.1 -87.3 -186.8 -122.6 -137.5 -127.6C-88.3 -132.5 -44.1 -107.3 0.1 -107.4C44.4 -107.5 88.7 -133 127.3 -126.2" fill="#BB004B"></path></g></svg>